<svg width="48" height="48" viewBox="0 0 48 48" fill="none" xmlns="http://www.w3.org/2000/svg">
<rect width="48" height="48" rx="8" fill="#D3D3D3" fill-opacity="0.4"/>
<path d="M37.2 13.2001C36.0509 14.0106 34.7785 14.6306 33.432 15.0361C32.7093 14.2051 31.7488 13.6161 30.6805 13.3488C29.6121 13.0814 28.4874 13.1487 27.4585 13.5414C26.4296 13.9341 25.5461 14.6333 24.9276 15.5445C24.309 16.4557 23.9853 17.5349 24 18.6361V19.8361C21.8912 19.8907 19.8015 19.423 17.9172 18.4746C16.0329 17.5262 14.4124 16.1264 13.2 14.4001C13.2 14.4001 8.40002 25.2001 19.2 30.0001C16.7287 31.6776 13.7846 32.5188 10.8 32.4001C21.6 38.4001 34.8 32.4001 34.8 18.6001C34.7989 18.2658 34.7668 17.9324 34.704 17.6041C35.9287 16.3962 36.793 14.8713 37.2 13.2001Z" fill="white"/>
</svg>
