<svg width="99" height="108" viewBox="0 0 99 108" fill="none" xmlns="http://www.w3.org/2000/svg">
<g opacity="0.3">
<path d="M27.71 86.07L31.85 90.2" stroke="#1C509C" stroke-width="1.15" stroke-linecap="round" stroke-linejoin="round"/>
<path d="M13.52 71.87L21.12 79.48" stroke="#1C509C" stroke-width="1.15" stroke-linecap="round" stroke-linejoin="round"/>
<path d="M26.4 72.79L55.02 101.41" stroke="#1C509C" stroke-width="1.15" stroke-linecap="round" stroke-linejoin="round"/>
<path d="M11.8 58.2L17.61 64" stroke="#1C509C" stroke-width="1.15" stroke-linecap="round" stroke-linejoin="round"/>
<path d="M46.97 81.4L72.15 106.58" stroke="#1DB3B4" stroke-width="1.15" stroke-linecap="round" stroke-linejoin="round"/>
<path d="M8.96997 43.4L35.82 70.25" stroke="#1DB3B4" stroke-width="1.15" stroke-linecap="round" stroke-linejoin="round"/>
<path d="M30.02 52.49L74.47 96.94" stroke="#1C509C" stroke-width="1.15" stroke-linecap="round" stroke-linejoin="round"/>
<path d="M11.64 34.11L21.05 43.52" stroke="#1C509C" stroke-width="1.15" stroke-linecap="round" stroke-linejoin="round"/>
<path d="M66.72 77.23L77.4 87.92" stroke="#1C509C" stroke-width="1.15" stroke-linecap="round" stroke-linejoin="round"/>
<path d="M1 11.51L55.48 66" stroke="#1C509C" stroke-width="1.15" stroke-linecap="round" stroke-linejoin="round"/>
<path d="M44.7 43.25L97.93 96.48" stroke="#1DB3B4" stroke-width="1.15" stroke-linecap="round" stroke-linejoin="round"/>
<path d="M21.19 19.74L33.56 32.11" stroke="#1DB3B4" stroke-width="1.15" stroke-linecap="round" stroke-linejoin="round"/>
<path d="M55.03 41.62L89.42 76.01" stroke="#1C509C" stroke-width="1.15" stroke-linecap="round" stroke-linejoin="round"/>
<path d="M19.93 6.52L45.34 31.92" stroke="#1C509C" stroke-width="1.15" stroke-linecap="round" stroke-linejoin="round"/>
<path d="M35.45 10.08L70.35 44.97" stroke="#1DB3B4" stroke-width="1.15" stroke-linecap="round" stroke-linejoin="round"/>
<path d="M66 28.66L90.26 52.93" stroke="#1C509C" stroke-width="1.15" stroke-linecap="round" stroke-linejoin="round"/>
<path d="M38.33 1L56.48 19.15" stroke="#1C509C" stroke-width="1.15" stroke-linecap="round" stroke-linejoin="round"/>
<path d="M52.85 3.56L76.78 27.48" stroke="#1DB3B4" stroke-width="1.15" stroke-linecap="round" stroke-linejoin="round"/>
</g>
</svg>
