<svg width="52" height="52" viewBox="0 0 52 52" fill="none" xmlns="http://www.w3.org/2000/svg">
<path d="M50 26C50 32.3652 47.4714 38.4697 42.9706 42.9706C38.4697 47.4714 32.3652 50 26 50M50 26C50 19.6348 47.4714 13.5303 42.9706 9.02944C38.4697 4.52856 32.3652 2 26 2M50 26H2M26 50C19.6348 50 13.5303 47.4714 9.02944 42.9706C4.52856 38.4697 2 32.3652 2 26M26 50C30.4187 50 34 39.2533 34 26C34 12.7467 30.4187 2 26 2M26 50C21.5813 50 18 39.2533 18 26C18 12.7467 21.5813 2 26 2M26 2C19.6348 2 13.5303 4.52856 9.02944 9.02944C4.52856 13.5303 2 19.6348 2 26" stroke="white" stroke-width="3" stroke-linecap="round" stroke-linejoin="round"/>
</svg>
