<svg width="58" height="46" viewBox="0 0 58 46" fill="none" xmlns="http://www.w3.org/2000/svg">
<path d="M42.3333 44.3333H55.6667V39C55.6666 37.3374 55.1484 35.7161 54.1844 34.3616C53.2203 33.0071 51.8582 31.9866 50.2873 31.442C48.7165 30.8973 47.015 30.8556 45.4194 31.3227C43.8237 31.7897 42.4133 32.7423 41.384 34.048M42.3333 44.3333H15.6667M42.3333 44.3333V39C42.3333 37.2506 41.9973 35.5786 41.384 34.048M41.384 34.048C40.3937 31.5732 38.6847 29.4519 36.4773 27.9576C34.27 26.4634 31.6656 25.6648 29 25.6648C26.3345 25.6648 23.73 26.4634 21.5227 27.9576C19.3153 29.4519 17.6063 31.5732 16.616 34.048M15.6667 44.3333H2.33334V39C2.33347 37.3374 2.85157 35.7161 3.81564 34.3616C4.77971 33.0071 6.14184 31.9866 7.71268 31.442C9.28352 30.8973 10.985 30.8556 12.5806 31.3227C14.1763 31.7897 15.5868 32.7423 16.616 34.048M15.6667 44.3333V39C15.6667 37.2506 16.0027 35.5786 16.616 34.048M37 9.66663C37 11.7884 36.1572 13.8232 34.6569 15.3235C33.1566 16.8238 31.1217 17.6666 29 17.6666C26.8783 17.6666 24.8434 16.8238 23.3432 15.3235C21.8429 13.8232 21 11.7884 21 9.66663C21 7.54489 21.8429 5.51006 23.3432 4.00977C24.8434 2.50948 26.8783 1.66663 29 1.66663C31.1217 1.66663 33.1566 2.50948 34.6569 4.00977C36.1572 5.51006 37 7.54489 37 9.66663ZM53 17.6666C53 19.0811 52.4381 20.4377 51.4379 21.4379C50.4377 22.4381 49.0812 23 47.6667 23C46.2522 23 44.8956 22.4381 43.8954 21.4379C42.8952 20.4377 42.3333 19.0811 42.3333 17.6666C42.3333 16.2521 42.8952 14.8956 43.8954 13.8954C44.8956 12.8952 46.2522 12.3333 47.6667 12.3333C49.0812 12.3333 50.4377 12.8952 51.4379 13.8954C52.4381 14.8956 53 16.2521 53 17.6666ZM15.6667 17.6666C15.6667 19.0811 15.1048 20.4377 14.1046 21.4379C13.1044 22.4381 11.7478 23 10.3333 23C8.91886 23 7.5623 22.4381 6.56211 21.4379C5.56191 20.4377 5.00001 19.0811 5.00001 17.6666C5.00001 16.2521 5.56191 14.8956 6.56211 13.8954C7.5623 12.8952 8.91886 12.3333 10.3333 12.3333C11.7478 12.3333 13.1044 12.8952 14.1046 13.8954C15.1048 14.8956 15.6667 16.2521 15.6667 17.6666Z" stroke="white" stroke-width="3" stroke-linecap="round" stroke-linejoin="round"/>
</svg>
